<?xml version="1.0" encoding="UTF-8"?>
<svg width="114px" height="7px" viewBox="0 0 114 7" version="1.1" xmlns="http://www.w3.org/2000/svg" xmlns:xlink="http://www.w3.org/1999/xlink">
    <!-- Generator: Sketch 49.3 (51167) - http://www.bohemiancoding.com/sketch -->
    <title>Page 1 Copy</title>
    <desc>Created with Sketch.</desc>
    <defs></defs>
    <g id="Page-1" stroke="none" stroke-width="1" fill="none" fill-rule="evenodd">
        <path d="M0,1 C5.69921918,1 5.69921918,6 11.399024,6 C17.0982432,6 17.0982432,1 22.7980479,1 C28.4978527,1 28.4978527,6 34.1976575,6 C39.8957055,6 39.8957055,1 45.594339,1 C51.2929726,1 51.2929726,6 56.9921918,6 C62.6925822,6 62.6925822,1 68.392387,1 C74.0916062,1 74.0916062,6 79.7902397,6 C85.4900445,6 85.4900445,1 91.1898493,1 C96.8896541,1 96.8896541,6 102.589459,6 C108.289849,6 108.289849,1 113.99024,1" id="Page-1-Copy" stroke="#FF6148" stroke-width="2"></path>
    </g>
</svg>