<?xml version="1.0" encoding="UTF-8"?>
<svg width="133px" height="133px" viewBox="0 0 133 133" version="1.1" xmlns="http://www.w3.org/2000/svg" xmlns:xlink="http://www.w3.org/1999/xlink">
    <!-- Generator: Sketch 50 (54983) - http://www.bohemiancoding.com/sketch -->
    <title>bubble copy</title>
    <desc>Created with Sketch.</desc>
    <defs></defs>
    <g id="bubble-copy" stroke="none" stroke-width="1" fill="none" fill-rule="evenodd">
        <circle id="Oval" fill="#FF5E2D" cx="67" cy="67" r="60"></circle>
        <polygon id="Path-2" fill="#FF5E2D" points="25.2673267 89 7 125 52 112.175"></polygon>
        <path d="M70.7204541,63.7795459 L82.4311963,63.7795459 C84.209804,63.7795459 85.6516504,65.2213923 85.6516504,67 C85.6516504,68.7786077 84.209804,70.2204541 82.4311963,70.2204541 L70.7204541,70.2204541 L70.7204541,81.9311963 C70.7204541,83.709804 69.2786077,85.1516504 67.5,85.1516504 C65.7213923,85.1516504 64.2795459,83.709804 64.2795459,81.9311963 L64.2795459,70.2204541 L52.5688037,70.2204541 C50.790196,70.2204541 49.3483496,68.7786077 49.3483496,67 C49.3483496,65.2213923 50.790196,63.7795459 52.5688037,63.7795459 L64.2795459,63.7795459 L64.2795459,52.0688037 C64.2795459,50.290196 65.7213923,48.8483496 67.5,48.8483496 C69.2786077,48.8483496 70.7204541,50.290196 70.7204541,52.0688037 L70.7204541,63.7795459 Z" id="Combined-Shape" fill="#FFFFFF" transform="translate(67.500000, 67.000000) rotate(-45.000000) translate(-67.500000, -67.000000) "></path>
    </g>
</svg>