<?xml version="1.0" encoding="UTF-8"?>
<svg width="90px" height="90px" viewBox="0 0 90 90" version="1.1" xmlns="http://www.w3.org/2000/svg" xmlns:xlink="http://www.w3.org/1999/xlink">
    <!-- Generator: Sketch 50.2 (55047) - http://www.bohemiancoding.com/sketch -->
    <title>bye</title>
    <desc>Created with Sketch.</desc>
    <defs></defs>
    <g id="Page-1" stroke="none" stroke-width="1" fill="none" fill-rule="evenodd">
        <g id="bye" fill-rule="nonzero">
            <circle id="Oval" fill="#FF5E2D" cx="45" cy="45" r="45"></circle>
            <polygon id="Path-2" fill="#FF5E2D" points="13.8019802 62 0 89 34 79.38125"></polygon>
            <path d="M47.8951613,42.1048387 L56.6048387,42.1048387 C57.9276498,42.1048387 59,43.1771889 59,44.5 C59,45.8228111 57.9276498,46.8951613 56.6048387,46.8951613 L47.8951613,46.8951613 L47.8951613,55.6048387 C47.8951613,56.9276498 46.8228111,58 45.5,58 C44.1771889,58 43.1048387,56.9276498 43.1048387,55.6048387 L43.1048387,46.8951613 L34.3951613,46.8951613 C33.0723502,46.8951613 32,45.8228111 32,44.5 C32,43.1771889 33.0723502,42.1048387 34.3951613,42.1048387 L43.1048387,42.1048387 L43.1048387,33.3951613 C43.1048387,32.0723502 44.1771889,31 45.5,31 C46.8228111,31 47.8951613,32.0723502 47.8951613,33.3951613 L47.8951613,42.1048387 Z" id="Combined-Shape" fill="#FFFFFF" transform="translate(45.500000, 44.500000) rotate(-45.000000) translate(-45.500000, -44.500000) "></path>
        </g>
    </g>
</svg>