<?xml version="1.0" encoding="UTF-8"?>
<svg width="133px" height="133px" viewBox="0 0 133 133" version="1.1" xmlns="http://www.w3.org/2000/svg" xmlns:xlink="http://www.w3.org/1999/xlink">
    <!-- Generator: Sketch 50 (54983) - http://www.bohemiancoding.com/sketch -->
    <title>bubble copy</title>
    <desc>Created with Sketch.</desc>
    <defs></defs>
    <g id="bubble-copy" stroke="none" stroke-width="1" fill="none" fill-rule="evenodd">
        <circle id="Oval" fill="#FF5E2D" cx="67" cy="67" r="45"></circle>
        <polygon id="Path-2" fill="#FF5E2D" points="35.8019802 84 22 111 56 101.38125"></polygon>
        <path d="M69.8951613,64.1048387 L78.6048387,64.1048387 C79.9276498,64.1048387 81,65.1771889 81,66.5 C81,67.8228111 79.9276498,68.8951613 78.6048387,68.8951613 L69.8951613,68.8951613 L69.8951613,77.6048387 C69.8951613,78.9276498 68.8228111,80 67.5,80 C66.1771889,80 65.1048387,78.9276498 65.1048387,77.6048387 L65.1048387,68.8951613 L56.3951613,68.8951613 C55.0723502,68.8951613 54,67.8228111 54,66.5 C54,65.1771889 55.0723502,64.1048387 56.3951613,64.1048387 L65.1048387,64.1048387 L65.1048387,55.3951613 C65.1048387,54.0723502 66.1771889,53 67.5,53 C68.8228111,53 69.8951613,54.0723502 69.8951613,55.3951613 L69.8951613,64.1048387 Z" id="Combined-Shape" fill="#FFFFFF" transform="translate(67.500000, 66.500000) rotate(-45.000000) translate(-67.500000, -66.500000) "></path>
    </g>
</svg>