<?xml version="1.0" encoding="utf-8"?>
<!-- Generator: Adobe Illustrator 22.1.0, SVG Export Plug-In . SVG Version: 6.00 Build 0)  -->
<svg version="1.1" id="Layer_1" xmlns="http://www.w3.org/2000/svg" xmlns:xlink="http://www.w3.org/1999/xlink" x="0px" y="0px"
	 viewBox="0 0 133 133" style="enable-background:new 0 0 133 133;" xml:space="preserve">
<style type="text/css">
	.st0{fill:#FF5E2D;}
	.st1{enable-background:new    ;}
	.st2{fill:#FFFFFF;}
</style>
<title>bubble</title>
<desc>Created with Sketch.</desc>
<g id="bubble">
	<circle id="Oval" class="st0" cx="67" cy="67" r="45"/>
	<polygon id="Path-2" class="st0" points="35.8,84 22,111 56,101.4 	"/>
	<g class="st1">
		<path class="st2" d="M55.1,46.1L55,49.9l0.3,6.9l0.2,5.4c0,1-0.3,1.5-0.9,1.5c-0.3,0-0.6-0.2-0.7-0.5s-0.2-0.7-0.2-1l0.2-4.8
			c0-1-0.1-2.6-0.2-4.7s-0.2-3.6-0.2-4.7l0-2.6c0-1.4-0.1-2.4-0.3-2.8l-1.6,0.2c-0.3,0-0.5-0.1-0.7-0.2c-0.2-0.2-0.3-0.3-0.3-0.6
			c0-0.2,0.2-0.4,0.7-0.6c0.5-0.2,1.1-0.3,1.8-0.4c1.2-0.1,2.2-0.2,3-0.2c0.2,0,0.5,0.1,0.7,0.2c0.2,0.2,0.3,0.4,0.3,0.6
			s-0.1,0.4-0.3,0.6c-0.2,0.1-0.4,0.2-0.6,0.2l-1.1-0.1c-0.1,0-0.2,0-0.3,0C55,43.5,55.1,44.8,55.1,46.1z"/>
		<path class="st2" d="M64.6,57.4l0.3,1.8c0,0.2,0.1,0.8,0.3,1.8s0.3,1.6,0.3,1.9v0c0,0.4-0.2,0.7-0.5,0.8c-0.4,0-0.7-0.1-1-0.2
			s-0.4-0.4-0.4-0.8c0-0.8-0.1-2.1-0.4-3.7l-3-0.4c-0.2,0.7-0.3,1.4-0.4,2.2s-0.2,1.4-0.3,1.7c-0.2,0.7-0.5,1.1-1,1.1
			c-0.2,0-0.5-0.1-0.7-0.2c-0.2-0.2-0.3-0.3-0.3-0.6l0.1-0.3c1.3-5.2,2.3-10.3,3-15.2c0-0.1,0-0.5,0.1-1.2c0.1-1.5,0.3-2.4,0.6-2.8
			h1c0.3,0,0.5,0.1,0.7,0.2s0.3,0.3,0.3,0.6c0,1.5,0.2,3.8,0.6,6.8S64.6,56.1,64.6,57.4z M63,58C63,57.7,63,57.2,63,56.5
			s0-1.6-0.1-2.7c-0.1-1.1-0.2-2.3-0.4-3.8s-0.3-2.5-0.3-3.1c-0.9,5-1.5,8.6-1.8,10.6C60.7,57.7,61.6,57.9,63,58z"/>
		<path class="st2" d="M68.9,46.7l0.1,7.2c-0.1,0.3-0.2,0.6-0.2,1v0.6l-0.1,4.8c0,1.4,0.3,2.1,1,2.1l1.2,0c1.1,0,1.6,0.3,1.6,0.9
			c0,0.2-0.1,0.4-0.3,0.5s-0.4,0.2-0.6,0.3c-0.7-0.2-1.6-0.4-2.7-0.4c-0.3,0.2-0.6,0.3-0.9,0.3s-0.5-0.1-0.7-0.3s-0.2-0.4-0.2-0.7
			c0-1.5,0.1-3.7,0.2-6.7c0.1-3,0.2-5.2,0.2-6.7v-0.2c-0.1-1.2-0.2-2.2-0.2-2.8c0-1.9,0.3-2.8,1-2.8c0.2,0,0.4,0.1,0.5,0.2
			s0.2,0.3,0.2,0.5L68.9,46.7z"/>
		<path class="st2" d="M78.1,50l-0.1,1.8c0,0.9,0.3,2.5,1,4.8s1.3,3.9,1.7,4.7c0.1,0.1,0.2,0.3,0.4,0.5s0.3,0.5,0.4,0.7
			s0.1,0.4,0.1,0.6s-0.1,0.4-0.3,0.6S81.2,64,80.9,64c-0.5,0-1-0.5-1.5-1.5c-0.5-1-1-2.2-1.3-3.6c-0.7-2.5-1.2-4.6-1.5-6.4
			c-0.7,1.4-1.1,3.2-1.1,5.2v5.6c0,0.5-0.2,0.7-0.6,0.7c-0.3,0-0.5-0.1-0.7-0.3s-0.3-0.4-0.3-0.7v-9.1c0-1.1,0.1-2.7,0.3-4.9
			c0.2-2.2,0.3-3.8,0.3-4.8c0.2-0.4,0.4-0.6,0.8-0.6s0.6,0.1,0.8,0.3c0.2,0.2,0.3,0.4,0.3,0.7v0.1c-0.3,0.5-0.4,2.3-0.4,5.5v1.1
			c0,0,0.4-0.8,1.1-2.2c1.7-3.4,2.8-5.2,3.2-5.2c0.3,0,0.6,0.1,0.8,0.2s0.4,0.3,0.4,0.6c0,0-0.2,0.4-0.7,1.2
			C79.2,48.2,78.3,49.6,78.1,50z"/>
	</g>
	<g class="st1">
		<path class="st2" d="M49.6,87l-0.1-2.3c0,0,0-0.4,0-1c-0.1-0.3-0.2-2.5-0.5-6.8s-0.4-6.9-0.4-7.8c0,0-0.1,0-0.1,0
			c-1.6,0-2.4-0.3-2.4-0.9c0-0.2,0.1-0.3,0.3-0.5s0.4-0.2,0.6-0.2l4.1,0.3l0.5,0c0.6,0,0.9,0.2,0.9,0.7c0,0.2-0.1,0.4-0.3,0.6
			c-0.2,0.2-0.4,0.2-0.7,0.2l-1.4-0.2l-0.1,0.3c0,1.9,0.2,4.7,0.5,8.5s0.5,6.6,0.5,8.5c0,0.2-0.1,0.4-0.3,0.6
			c-0.2,0.2-0.4,0.3-0.7,0.3L49.6,87z"/>
		<path class="st2" d="M53.8,78.3l0-1.1c0-0.1,0-0.1,0-0.1v-0.5c0-3.1,0.2-5.4,0.5-6.7c0.3-1.1,0.6-1.8,0.9-2.1s0.6-0.4,0.8-0.4
			c2.3,0,3.9,1.2,4.8,3.5c0.5,1.3,0.8,3,0.8,5V76l0.1,3.4c0,5.8-1.3,8.6-4,8.6c-1.1,0-1.9-0.6-2.5-1.8c-0.6-1.2-0.9-2.3-1-3.5
			C53.9,81.1,53.8,79.6,53.8,78.3z M55.5,74.2L55.4,77c0,2.9,0.2,5.4,0.7,7.6c0.5,1.3,1,2,1.4,2.2c0.4,0,0.7-0.1,1-0.4
			s0.5-0.7,0.7-1.2s0.3-1,0.4-1.6c0.1-0.5,0.2-1.1,0.2-1.7c0.1-1.1,0.1-2,0.1-2.7s-0.1-1.9-0.2-3.5s-0.2-2.7-0.2-3.5v-0.5
			c0-0.7-0.3-1.4-0.7-2c-0.5-0.6-1-0.9-1.8-0.9c-0.7,0-1.1,0.4-1.4,1.2c-0.2,0.6-0.3,1.4-0.3,2.4L55.5,74.2z"/>
		<path class="st2" d="M78,87.2l0-3.8c0-0.9-0.1-2.2-0.2-3.9s-0.2-2.9-0.2-3.5s0-1.3,0.1-2.1c0-0.8,0.1-1.4,0.1-1.9
			c-0.1,0.3-0.4,1.6-1,4.1c-1.5,6.5-2.6,9.7-3.3,9.7c-0.4,0-0.7-0.1-0.9-0.4s-0.3-0.5-0.3-0.9c0-0.9-0.4-2.9-1.1-5.9
			s-1.4-5.2-1.9-6.8c-0.4,7.1-0.6,11.8-0.6,14.3l0,0.9c0,0.3-0.1,0.6-0.2,0.7c-0.1,0.2-0.4,0.3-0.6,0.3s-0.5-0.1-0.7-0.2
			c-0.2-0.1-0.3-0.3-0.3-0.5c0-2,0.2-5.1,0.5-9.2s0.5-7.1,0.5-9.2c-0.1-0.2-0.2-0.4-0.2-0.6s0.1-0.4,0.4-0.5s0.5-0.2,0.8-0.2
			c0.4,0,1.3,2,2.5,6s2.1,6.8,2.3,8.3c0.1-0.3,0.3-1,0.5-2.2c0.3-1.2,0.6-2.4,0.9-3.7c0.3-1.3,0.7-2.6,1-3.9c0.8-3,1.6-4.5,2.1-4.5
			c0.3,0,0.5,0.1,0.7,0.2s0.4,0.3,0.4,0.6c0,1.4,0.1,3.6,0.2,6.5s0.2,5,0.2,6.3l-0.1,3.2v0c0,0.2,0.1,0.9,0.2,2.1l0.1,0.6
			c0.1,0.2,0.1,0.4,0.1,0.7c0,0.2-0.1,0.5-0.3,0.8s-0.4,0.4-0.7,0.4C78.4,89.1,78,88.4,78,87.2z"/>
		<path class="st2" d="M82.1,72.3l-0.2-2.5c0-1.4,0.4-2.1,1.3-2.1c0.5,0,1.3,0.1,2.2,0.4c0.9,0.2,1.4,0.6,1.4,1
			c0,0.4-0.3,0.7-0.9,0.9c-0.9-0.3-1.7-0.5-2.3-0.6c0,0.4,0,0.9,0,1.3L83.5,75c0,0,0,0.2,0.1,0.5l1.1,0c1,0,1.4,0.3,1.4,0.8
			c0,0.2-0.1,0.4-0.3,0.6C85.7,77,85.5,77,85.2,77s-0.6,0-0.9-0.1h-0.8c0.1,0.8,0.1,1.5,0.1,2.3l-0.1,5.4c0,1.1,0,1.7,0.1,1.7
			l2.2-0.1c0.8,0,1.1,0.2,1.1,0.7c0,0.3-0.1,0.5-0.4,0.7s-0.6,0.2-0.9,0.2h-2.5c-0.3,0-0.5-0.1-0.7-0.3c-0.2-0.2-0.3-0.4-0.3-0.7
			v-0.8l-0.2-5.1L82.1,72.3z"/>
	</g>
</g>
</svg>
