<?xml version="1.0" encoding="UTF-8"?>
<svg width="90px" height="90px" viewBox="0 0 90 90" version="1.1" xmlns="http://www.w3.org/2000/svg" xmlns:xlink="http://www.w3.org/1999/xlink">
    <!-- Generator: Sketch 50.2 (55047) - http://www.bohemiancoding.com/sketch -->
    <title>hello</title>
    <desc>Created with Sketch.</desc>
    <defs>
        <path d="M33.1079101,24.078125 L33.0493164,27.9453125 L33.3129883,34.8447266 L33.5620117,40.2353516 C33.5620117,41.211919 33.2739286,41.7001953 32.6977539,41.7001953 C32.365721,41.7001953 32.1215828,41.5439469 31.965332,41.2314453 C31.8090812,40.9189438 31.730957,40.5722675 31.730957,40.1914063 L31.965332,35.4013672 C31.965332,34.3662058 31.8969733,32.8086042 31.7602539,30.7285156 C31.6235345,28.6484271 31.5551758,27.0908255 31.5551758,26.0556641 L31.5991211,23.4335938 C31.5991211,21.9980397 31.5063486,21.0654318 31.3208008,20.6357422 L29.6948242,20.796875 C29.4409167,20.796875 29.2138682,20.7211922 29.0136719,20.5698242 C28.8134755,20.4184563 28.7133789,20.2231457 28.7133789,19.9838867 C28.7133789,19.7446277 28.9526343,19.541993 29.4311523,19.3759766 C29.919436,19.2001944 30.5053677,19.0732426 31.1889648,18.9951172 C32.3901427,18.8583978 33.4008748,18.7900391 34.2211914,18.7900391 C34.4653332,18.7900391 34.687499,18.8706047 34.8876953,19.0317383 C35.0878916,19.1928719 35.1879883,19.3955066 35.1879883,19.6396485 C35.1879883,19.8837903 35.1000985,20.0766595 34.9243164,20.2182617 C34.7485343,20.359864 34.5336927,20.4306641 34.2797851,20.4306641 L33.2104492,20.3720703 C33.0737298,20.3720703 32.9711917,20.3769531 32.902832,20.3867188 C33.0395514,21.5390683 33.1079101,22.7695247 33.1079101,24.078125 Z M41.0473633,36.0019531 C40.9887692,35.7089829 40.9594726,35.1987341 40.9594726,34.4711914 C40.9594726,33.7436487 40.9179691,32.8403374 40.8349609,31.7612305 C40.7519527,30.6821235 40.632325,29.4272533 40.4760742,27.996582 C40.3198234,26.5659108 40.2124026,25.5283235 40.1538086,24.8837891 C39.2456009,29.9131111 38.6596693,33.4579975 38.3959961,35.5185547 C38.7377947,35.7431652 39.6215749,35.9042964 41.0473633,36.0019531 Z M42.6147461,35.4013672 L42.9370117,37.2470703 C42.9370117,37.4912122 43.0322256,38.0869093 43.2226562,39.0341797 C43.4130869,39.9814501 43.5083008,40.601561 43.5083008,40.8945313 L43.5083008,40.9238281 C43.5083008,41.3632835 43.3422868,41.6464838 43.0102539,41.7734375 C42.5903299,41.7734375 42.2631847,41.7050788 42.0288086,41.5683594 C41.7944324,41.43164 41.6772461,41.1679707 41.6772461,40.7773438 C41.6772461,39.9277301 41.5307632,38.6923909 41.2377929,37.0712891 L38.2788086,36.631836 C38.0932608,37.2959018 37.9516606,38.0234336 37.8540039,38.8144531 C37.7563471,39.6054727 37.6635746,40.1816388 37.5756836,40.5429688 C37.3999014,41.28516 37.0727563,41.65625 36.5942383,41.65625 C36.3598621,41.65625 36.1425791,41.5805672 35.9423828,41.4291992 C35.7421865,41.2778313 35.6420898,41.0849621 35.6420898,40.850586 L35.715332,40.5869141 C37.062995,35.3818099 38.0639616,30.3135012 38.7182617,25.381836 C38.737793,25.2451165 38.7670896,24.8447299 38.8061523,24.1806641 C38.9038091,22.715813 39.0893541,21.7832051 39.3627929,21.3828125 L40.3735351,21.3828125 C40.646974,21.3828125 40.8862294,21.4462884 41.0913086,21.5732422 C41.2963877,21.700196 41.3989258,21.8906237 41.3989258,22.1445313 C41.3989258,23.6679764 41.6015605,25.928696 42.0068359,28.9267578 C42.4121114,31.9248197 42.6147461,34.0830012 42.6147461,35.4013672 Z M46.9067383,24.678711 L46.9946289,31.8857422 C46.8774408,32.1591811 46.8188476,32.5009745 46.8188476,32.9111328 L46.8188476,33.5117188 L46.7016601,38.2871094 C46.7016601,39.6640694 47.0385708,40.3525391 47.7124023,40.3525391 L48.9575195,40.3085938 C50.0317436,40.3085938 50.5688476,40.6015596 50.5688476,41.1875 C50.5688476,41.4023448 50.4760751,41.5805657 50.2905273,41.722168 C50.1049795,41.8637703 49.8950207,41.9492186 49.6606445,41.9785156 C48.928219,41.7441395 48.0346732,41.6269531 46.9799804,41.6269531 C46.6577132,41.8125009 46.3476577,41.9052735 46.0498047,41.9052735 C45.7519516,41.9052735 45.5200203,41.8027354 45.3540039,41.5976563 C45.1879874,41.3925771 45.1049804,41.16797 45.1049804,40.9238281 C45.1049804,39.4394457 45.1684564,37.2055813 45.2954101,34.222168 C45.4223639,31.2387546 45.4858398,29.0048902 45.4858398,27.5205078 L45.4858398,27.3007813 C45.3686517,26.050775 45.3100586,25.1132844 45.3100586,24.4882813 C45.3100586,22.5937405 45.6567348,21.6464844 46.3500976,21.6464844 C46.5551768,21.6464844 46.7333977,21.7197258 46.8847656,21.866211 C47.0361336,22.0126961 47.1118164,22.1884755 47.1118164,22.3935547 L46.9067383,24.678711 Z M56.1206054,28.0332031 L56.0620117,29.8203125 C56.0620117,30.6796918 56.4062465,32.2861211 57.0947265,34.6396485 C57.7832065,36.9931758 58.3569313,38.5507775 58.8159179,39.3125 C58.874512,39.4003911 59.0039052,39.5810533 59.2041015,39.8544922 C59.4042979,40.1279311 59.5507808,40.3671865 59.6435547,40.5722656 C59.7363286,40.7773448 59.7827148,40.9921864 59.7827148,41.2167969 C59.7827148,41.4414074 59.6972665,41.6293938 59.5263672,41.7807617 C59.3554679,41.9321297 59.1577159,42.0078125 58.9331054,42.0078125 C58.4643531,42.0078125 57.9760767,41.512212 57.4682617,40.5209961 C56.9604467,39.5297802 56.5112324,38.3164134 56.1206054,36.8808594 C55.446774,34.4296753 54.9487321,32.2959075 54.6264648,30.4794922 C53.903805,31.9150463 53.5424804,33.6533101 53.5424804,35.694336 L53.5424804,41.2460938 C53.5424804,41.7148461 53.3374044,41.9492188 52.9272461,41.9492188 C52.6245102,41.9492188 52.3828134,41.8637704 52.2021484,41.6928711 C52.0214835,41.5219718 51.9311523,41.2900405 51.9311523,40.9970703 L51.9311523,31.8857422 C51.9311523,30.8017524 52.0263662,29.1831162 52.2167969,27.0297852 C52.4072275,24.8764541 52.5024414,23.2627007 52.5024414,22.1884766 C52.6782235,21.8076153 52.9345686,21.6171875 53.2714844,21.6171875 C53.6084001,21.6171875 53.8671866,21.7075186 54.0478515,21.8881836 C54.2285165,22.0688486 54.3188476,22.2861316 54.3188476,22.5400391 L54.3188476,22.6279297 C54.0551744,23.0869164 53.9233398,24.9081872 53.9233398,28.0917969 L53.9233398,29.1611328 C53.9526368,29.1123045 54.3188441,28.3798899 55.0219726,26.9638672 C56.7309656,23.52635 57.7856425,21.8076172 58.1860351,21.8076172 C58.4790054,21.8076172 58.745116,21.8759759 58.984375,22.0126953 C59.223634,22.1494148 59.3432617,22.3496081 59.3432617,22.6132813 C59.3432617,22.6328126 59.1040063,23.0331992 58.6254883,23.8144531 C57.1508715,26.2265746 56.3159189,27.6328105 56.1206054,28.0332031 Z" id="path-1"></path>
        <path d="M27.5708007,65.0117188 L27.512207,62.7119141 C27.512207,62.7021484 27.5268553,62.3603549 27.5561523,61.6865234 C27.4780269,61.4326159 27.3193371,59.1767791 27.0800781,54.9189453 C26.8408191,50.6611115 26.7114258,48.0585985 26.6918945,47.1113281 L26.574707,47.1113281 C24.9536051,47.0820311 24.1430664,46.7841825 24.1430664,46.2177734 C24.1430664,46.0322256 24.2504872,45.8784186 24.465332,45.7563477 C24.6801768,45.6342767 24.8901356,45.5732422 25.0952148,45.5732422 L29.1674804,45.8515625 L29.6508789,45.8369141 C30.275882,45.8369141 30.5883789,46.0761695 30.5883789,46.5546875 C30.5883789,46.7988294 30.4858408,46.9965813 30.2807617,47.1479492 C30.0756825,47.2993172 29.8461926,47.375 29.5922851,47.375 L28.215332,47.1699219 L28.1567382,47.4775391 C28.1567382,49.3720798 28.3227522,52.2089655 28.6547851,55.9882813 C28.986818,59.767597 29.152832,62.6093655 29.152832,64.5136719 C29.152832,64.7480481 29.0454112,64.9555655 28.8305664,65.1362305 C28.6157215,65.3168954 28.3813489,65.4072266 28.1274414,65.4072266 L27.5708007,65.0117188 Z M31.7749023,56.3251953 L31.8041992,55.1826172 C31.8041992,55.0849605 31.7895509,55.0361328 31.7602539,55.0361328 L31.7602539,54.4941406 C31.7602539,51.3495937 31.9409161,49.1132879 32.3022461,47.7851563 C32.6049819,46.6621038 32.8979478,45.9687513 33.1811523,45.7050781 C33.4643568,45.4414049 33.7426744,45.3095703 34.0161132,45.3095703 C36.3403436,45.3095703 37.9418901,46.4814336 38.8208007,48.8251953 C39.3286158,50.1728583 39.5825195,51.832998 39.5825195,53.8056641 L39.5825195,54.0253906 L39.6411132,57.4238281 C39.6411132,63.17581 38.3081188,66.0517578 35.6420898,66.0517578 C34.5385687,66.0517578 33.6938505,65.4414124 33.1079101,64.2207031 C32.5512667,63.0488223 32.2094732,61.8964901 32.0825195,60.7636719 C31.8774403,59.054679 31.7749023,57.5752016 31.7749023,56.3251953 Z M33.5473632,52.2236328 L33.4008789,54.9921875 C33.4008789,57.8925926 33.6352515,60.4218642 34.1040039,62.5800781 C34.6020532,63.8398501 35.0756813,64.5820301 35.5249023,64.8066406 C35.8862322,64.8066406 36.2133774,64.6601577 36.5063476,64.3671875 C36.7993178,64.0742173 37.0312491,63.6811548 37.2021484,63.1879883 C37.3730477,62.6948218 37.5170892,62.1748074 37.6342773,61.6279297 C37.7416997,61.0908176 37.8247067,60.5146515 37.8833007,59.8994141 C37.9809575,58.8349556 38.0297851,57.9267616 38.0297851,57.1748047 C38.0297851,56.4228478 37.9638678,55.2705156 37.8320312,53.7177734 C37.7001946,52.1650313 37.6342773,51.0078163 37.6342773,50.2460938 L37.6342773,49.71875 C37.614746,48.9863245 37.3754905,48.3344755 36.9165039,47.7631836 C36.4575172,47.1918917 35.8715856,46.90625 35.1586914,46.90625 C34.4750942,46.90625 34.0209972,47.2919883 33.7963867,48.0634766 C33.6108389,48.708011 33.5180664,49.5039015 33.5180664,50.4511719 L33.5473632,52.2236328 Z M56.0473632,65.1875 L56.0620117,61.3496094 C56.0620117,60.4609331 55.9887702,59.1572352 55.8422851,57.4384766 C55.6958,55.719718 55.6225586,54.562503 55.6225586,53.9667969 C55.6225586,53.3710908 55.6420896,52.6606487 55.6811523,51.8354492 C55.720215,51.0102498 55.7397461,50.3925802 55.7397461,49.9824219 C55.651855,50.2460951 55.3149443,51.6279172 54.7290039,54.1279297 C53.2055587,60.5928058 52.1167024,63.8251953 51.4624023,63.8251953 C51.0717753,63.8251953 50.7666026,63.708009 50.546875,63.4736328 C50.3271473,63.2392567 50.2172851,62.9267598 50.2172851,62.5361328 C50.2172851,61.5888625 49.8437537,59.6381984 49.0966796,56.684082 C48.3496056,53.7299657 47.7172877,51.4668047 47.199707,49.8945313 C46.8188457,56.9453478 46.6284179,61.7109251 46.6284179,64.1914063 L46.6723632,65.0849609 C46.6723632,65.4072282 46.6040045,65.6538078 46.4672851,65.824707 C46.3305657,65.9956063 46.1157241,66.0810547 45.8227539,66.0810547 C45.5297836,66.0810547 45.2905282,66.0102546 45.1049804,65.8686524 C44.9194326,65.7270501 44.8266601,65.5585947 44.8266601,65.3632813 C44.8266601,63.3222554 44.9804672,60.2656454 45.2880859,56.1933594 C45.5957046,52.1210734 45.7495117,49.0644633 45.7495117,47.0234375 C45.6323236,46.8378897 45.5737304,46.6303723 45.5737304,46.4008789 C45.5737304,46.1713856 45.6957995,45.9980475 45.9399414,45.8808594 C46.1840832,45.7636713 46.4477524,45.7050781 46.730957,45.7050781 C47.1606466,45.7050781 48.0102475,47.7143354 49.2797851,51.7329102 C50.5493227,55.7514849 51.3305649,58.5322189 51.6235351,60.0751953 C51.7114262,59.7822251 51.8945298,59.0424864 52.1728515,57.855957 C52.4511732,56.6694277 52.7465804,55.4365298 53.059082,54.1572266 C53.3715835,52.8681576 53.713377,51.5693425 54.0844726,50.2607422 C54.9243206,47.2529147 55.6372041,45.7490234 56.2231445,45.7490234 C56.4868177,45.7490234 56.7358386,45.8222649 56.9702148,45.96875 C57.204591,46.1152351 57.3217773,46.3154284 57.3217773,46.5693359 C57.3217773,48.0146557 57.3852532,50.1728372 57.512207,53.0439453 C57.6391607,55.9150534 57.7026367,57.9999935 57.7026367,59.2988281 L57.6293945,62.4628906 L57.6293945,62.4775391 C57.6293945,62.7021496 57.6879877,63.4150331 57.8051757,64.6162109 L57.8637695,65.2021484 C57.9516606,65.4169933 57.9956054,65.6440418 57.9956054,65.8833008 C57.9956054,66.1225598 57.9028329,66.3789049 57.7172851,66.6523438 C57.5317373,66.9257826 57.2875991,67.0625 56.9848632,67.0625 C56.3598601,67.0625 56.0473632,66.4375063 56.0473632,65.1875 Z M60.0756836,50.3486328 L59.9145507,47.8144531 C59.9145507,46.3984304 60.3344684,45.6904297 61.1743164,45.6904297 C61.7114284,45.6904297 62.443843,45.8149402 63.371582,46.0639649 C64.299321,46.3129895 64.7631836,46.6328106 64.7631836,47.0234375 C64.7631836,47.4335958 64.4702177,47.7460927 63.8842773,47.9609375 C62.9565383,47.6484359 62.1997099,47.4580082 61.6137695,47.3896484 C61.6430665,47.8193381 61.6577148,48.2490213 61.6577148,48.6787109 L61.5258789,52.9853516 C61.5258789,53.0048829 61.5551754,53.1611314 61.6137695,53.4541016 L62.6831054,53.4101563 C63.6499071,53.4101563 64.1333007,53.683591 64.1333007,54.2304688 C64.1333007,54.4453136 64.045411,54.6333 63.8696289,54.7944336 C63.6938467,54.9555672 63.471681,55.0361328 63.203125,55.0361328 C62.9345689,55.0361328 62.6440445,55.0166018 62.3315429,54.9775391 L61.5698242,54.9775391 C61.6284182,55.7392616 61.6577148,56.49609 61.6577148,57.2480469 L61.5258789,62.6826172 C61.5258789,63.8056697 61.5454099,64.3671875 61.5844726,64.3671875 L63.7963867,64.2939453 C64.5581092,64.2939453 64.9389648,64.5380835 64.9389648,65.0263672 C64.9389648,65.3291031 64.8071302,65.5488275 64.543457,65.6855469 C64.2797838,65.8222663 63.9819352,65.890625 63.6499023,65.890625 L61.1157226,65.890625 C60.8520494,65.890625 60.612794,65.8002939 60.3979492,65.6196289 C60.1831044,65.438964 60.0708008,65.221681 60.0610351,64.9677734 L60.0610351,64.1767578 L59.8706054,59.1083984 L60.0756836,50.3486328 Z" id="path-2"></path>
    </defs>
    <g id="Page-1" stroke="none" stroke-width="1" fill="none" fill-rule="evenodd">
        <g id="hello">
            <circle id="Oval" fill="#FF5E2D" fill-rule="nonzero" cx="45" cy="45" r="45"></circle>
            <polygon id="Path-2" fill="#FF5E2D" fill-rule="nonzero" points="13.8019802 62 0 89 34 79.38125"></polygon>
            <g id="Talk">
                <use fill="#000000" xlink:href="#path-1"></use>
                <use fill="#FFFFFF" xlink:href="#path-1"></use>
            </g>
            <g id="to-me">
                <use fill="#000000" xlink:href="#path-2"></use>
                <use fill="#FFFFFF" xlink:href="#path-2"></use>
            </g>
        </g>
    </g>
</svg>